<svg width="25" height="25" viewBox="0 0 25 25" fill="none" xmlns="http://www.w3.org/2000/svg">
<path d="M22.6562 0C23.9507 0 25 1.04932 25 2.34375V16.4062C25 17.7007 23.9507 18.75 22.6562 18.75H8.59375C7.29932 18.75 6.25 17.7007 6.25 16.4062V2.34375C6.25 1.04932 7.29932 0 8.59375 0H22.6562ZM8.59375 20.3125C6.43984 20.3125 4.6875 18.5602 4.6875 16.4062V6.25H2.34375C1.04932 6.25 0 7.29932 0 8.59375V22.6562C0 23.9507 1.04932 25 2.34375 25H16.4062C17.7007 25 18.75 23.9507 18.75 22.6562V20.3125H8.59375Z" fill="#00AC4F"/>
</svg>
