<svg width="20" height="20" viewBox="0 0 0.9 0.9" xmlns="http://www.w3.org/2000/svg">
  <path d="M.3.15a.155.155 0 0 0-.155.125H.05v.05h.096A.156.156 0 0 0 .3.45h.125v-.3Z" fill="#FFFFFF" class="clr-i-solid clr-i-solid-path-1"/>
  <path d="M.845.575H.754A.156.156 0 0 0 .599.45H.475V.5H.35a.025.025 0 0 0-.025.025A.025.025 0 0 0 .35.55h.125v.1H.35a.025.025 0 0 0-.025.025A.025.025 0 0 0 .35.7h.125v.05h.124A.156.156 0 0 0 .754.625h.091Z" fill="#FFFFFF" class="clr-i-solid clr-i-solid-path-2"/>
  <path d="M0 0h.9v.9H0z" fill="none"/>
</svg>
