<svg width="20" height="20" viewBox="0 0 3.2 3.2" xml:space="preserve" xmlns="http://www.w3.org/2000/svg"><path d="M1.6 1.05c-.33 0-.6.27-.6.6s.27.6.6.6.6-.27.6-.6-.27-.6-.6-.6m0 1c-.22 0-.4-.18-.4-.4s.18-.4.4-.4.4.18.4.4-.18.4-.4.4m0 .47c-.373 0-.73.155-.985.428l-.068.072.145.138.068-.072c.22-.235.517-.365.84-.365s.62.13.84.365l.068.072.145-.138-.068-.072A1.36 1.36 0 0 0 1.6 2.52m.825-1.322v.2c.235 0 .453.095.615.268l.145-.138a1.04 1.04 0 0 0-.76-.33M2.902.5a.48.48 0 0 0-.477-.477.478.478 0 0 0 0 .955A.48.48 0 0 0 2.903.5m-.755 0a.279.279 0 1 1 .278.278A.28.28 0 0 1 2.148.5m-1.373.698c-.287 0-.565.12-.76.33l.145.138a.83.83 0 0 1 .615-.268zM1.253.5a.478.478 0 1 0-.478.478A.48.48 0 0 0 1.253.5M.775.778A.28.28 0 0 1 .497.5a.278.278 0 0 1 .556.001.28.28 0 0 1-.278.278" fill="#ffffff"/></svg>