<svg width="22" height="22" viewBox="0 0 22 22" fill="none" xmlns="http://www.w3.org/2000/svg">
<path d="M11.1963 7.35352C8.78906 7.35352 6.84082 9.30176 6.84082 11.709C6.84082 14.1162 8.78906 16.0645 11.1963 16.0645C13.6035 16.0645 15.5518 14.1162 15.5518 11.709C15.5518 9.30176 13.5986 7.35352 11.1963 7.35352ZM14.2578 10.1172L11.3818 11.6113C11.2939 11.6553 11.1963 11.5918 11.1963 11.499V8.25195C11.1963 8.17871 11.2598 8.12012 11.3281 8.125C12.6074 8.17383 13.7158 8.8916 14.3115 9.93652C14.3457 10 14.3213 10.083 14.2578 10.1172ZM18.999 0H2.87598C1.28906 0 0 1.28906 0 2.87598V18.9941C0 20.5859 1.28906 21.875 2.87598 21.875H18.9941C20.5859 21.875 21.8701 20.5859 21.8701 18.999V2.87598C21.875 1.28906 20.5859 0 18.999 0ZM9.10645 4.13574C9.10645 3.6084 9.53125 3.18359 10.0586 3.18359H12.2705C12.7979 3.18359 13.2227 3.6084 13.2227 4.13574V4.8877C13.2227 4.97559 13.1396 5.03418 13.0615 5.00977C12.4609 4.84375 11.8359 4.76074 11.2012 4.76074C10.542 4.76074 9.89746 4.84863 9.27734 5.0293C9.19434 5.05371 9.11133 4.99023 9.11133 4.90723V4.13574H9.10645ZM4.98535 5.94238L5.43457 5.49316C5.80566 5.12207 6.40625 5.12207 6.77734 5.49316L7.15332 5.86914C7.20703 5.92285 7.20215 6.01562 7.13867 6.06445C6.83594 6.28418 6.54785 6.52344 6.2793 6.79199C6.01563 7.05566 5.77148 7.34375 5.55664 7.6416C5.50781 7.70508 5.41504 7.71484 5.36133 7.65625L4.98535 7.28027C4.61426 6.91406 4.61426 6.31348 4.98535 5.94238ZM11.1963 17.8955C7.77832 17.8955 5.01465 15.127 5.01465 11.7139C5.01465 8.30078 7.7832 5.53223 11.1963 5.53223C14.6143 5.53223 17.3779 8.2959 17.3779 11.7139C17.3779 15.1221 14.6094 17.8955 11.1963 17.8955Z" fill="#00AC4F"/>
</svg>
