<svg width="20" height="20" viewBox="0 0 1.2 1.2" xmlns="http://www.w3.org/2000/svg"><g data-name="Layer 2"><path fill="none" d="M0 0h1.2v1.2H0z" data-name="invisible box"/><path d="M1.055.792a.12.12 0 0 0-.1-.028L.707.807a.1.1 0 0 0-.035-.08L.495.55h-.37a.05.05 0 0 0 0 .1h.33l.148.148a.02.02 0 0 1 0 .028.02.02 0 0 1-.03 0L.485.741a.05.05 0 0 0-.07.07l.088.088a.12.12 0 0 0 .085.035.1.1 0 0 0 .045-.01l.34-.06a.04.04 0 0 1 .02.005.03.03 0 0 1 .007.02.023.023 0 0 1-.02.023L.515.997.242.775H.125a.05.05 0 0 0-.05.05.05.05 0 0 0 .05.048h.083l.277.227.513-.093A.12.12 0 0 0 1.1.887a.12.12 0 0 0-.045-.095M.743.295l.045.048a.02.02 0 0 1 .005.013L.78.421A.013.013 0 0 0 .8.436l.055-.03H.87l.055.03a.013.013 0 0 0 .02-.015L.932.356A.02.02 0 0 1 .937.343L.982.295A.013.013 0 0 0 .975.272L.912.262.902.255.875.195a.015.015 0 0 0-.025 0l-.028.06-.01.007-.063.01a.013.013 0 0 0-.007.023M.848.148h.015A.04.04 0 0 0 .891.135L.901.11a.05.05 0 0 0-.01-.028.045.045 0 0 0-.055 0 .05.05 0 0 0-.01.03.03.03 0 0 0 .01.025Zm-.153.05a.04.04 0 0 0 .025.01.04.04 0 0 0 .028-.01.035.035 0 0 0 0-.053L.713.107a.04.04 0 0 0-.053 0 .04.04 0 0 0 0 .055Zm-.06.14.013.01h.015A.04.04 0 0 0 .691.335L.701.31a.05.05 0 0 0-.01-.028L.684.277H.671a.05.05 0 0 0-.035.01L.631.294v.02a.02.02 0 0 0 .003.013Zm.06.09L.66.463a.04.04 0 0 0 0 .053.04.04 0 0 0 .025.013.04.04 0 0 0 .028-.013L.748.481A.038.038 0 1 0 .695.428m.2.064Q.89.488.89.485a.045.045 0 0 0-.055 0Q.834.489.83.492v.005L.827.504v.007a.03.03 0 0 0 .01.025.04.04 0 0 0 .055 0 .04.04 0 0 0 .01-.025V.504L.899.497.894.492M.978.428a.04.04 0 0 0 0 .053l.035.035a.04.04 0 0 0 .028.013.04.04 0 0 0 .025-.013.035.035 0 0 0 0-.053L1.031.428a.035.035 0 0 0-.053 0m.057-.143L1.03.292v.02a.02.02 0 0 0 .003.013l.007.013a.04.04 0 0 0 .055 0l.007-.013a.02.02 0 0 0 .003-.013V.297L1.102.292 1.097.285a.045.045 0 0 0-.063 0M1.005.208a.04.04 0 0 0 .025-.01l.035-.035a.04.04 0 0 0 0-.055.04.04 0 0 0-.053 0L.977.146a.035.035 0 0 0 0 .053.04.04 0 0 0 .028.01" fill="#fff"/></g></svg>