<svg width="20" height="20" viewBox="0 0 1.2 1.2" version="1" xmlns="http://www.w3.org/2000/svg"><g fill="#616161"><path d="M.729.8.8.729l.3.301-.071.071z"/><path d="M.9.5a.4.4 0 0 1-.4.4.4.4 0 0 1-.4-.4.4.4 0 0 1 .8 0"/></g><path fill="#37474F" d="M.811.884.882.813l.217.217-.071.071z"/><path fill="#64B5F6" d="M.825.5A.325.325 0 0 1 .5.825.325.325 0 0 1 .175.5a.325.325 0 0 1 .65 0"/><path fill="#BBDEFB" d="M.672.355a.227.227 0 0 0-.346 0C.316.365.319.383.329.39.339.4.357.397.364.387.4.348.448.325.5.325s.1.023.135.063q.008.009.02.01A.03.03 0 0 0 .67.393C.68.383.68.365.673.355"/></svg>