<svg width="24" height="24" viewBox="0 0 24 24" fill="none" xmlns="http://www.w3.org/2000/svg">
<path d="M16 15.5153L12 11.6365L8 15.5153" stroke="#484444" stroke-width="2" stroke-linecap="round" stroke-linejoin="round"/>
<path d="M12 11.6365V20.3637" stroke="#484444" stroke-width="1.5" stroke-linecap="round" stroke-linejoin="round"/>
<path d="M20.39 17.8326C21.3653 17.317 22.1358 16.5011 22.5798 15.5137C23.0239 14.5263 23.1162 13.4236 22.8422 12.3797C22.5682 11.3358 21.9434 10.4101 21.0666 9.7487C20.1898 9.0873 19.1108 8.72789 18 8.72718H16.74C16.4373 7.5919 15.8731 6.53792 15.0899 5.6445C14.3067 4.75108 13.3248 4.04145 12.2181 3.56898C11.1113 3.0965 9.90851 2.87346 8.70008 2.91664C7.49164 2.95981 6.30903 3.26807 5.24114 3.81825C4.17325 4.36842 3.24787 5.14618 2.53458 6.09307C1.82129 7.03996 1.33865 8.13133 1.12294 9.28513C0.90723 10.4389 0.964065 11.6251 1.28917 12.7546C1.61428 13.884 2.1992 14.9273 2.99996 15.806" stroke="#484444" stroke-width="1.5" stroke-linecap="round" stroke-linejoin="round"/>
<path d="M16 15.5153L12 11.6365L8 15.5153" stroke="#484444" stroke-linecap="round" stroke-linejoin="round"/>
</svg>
