<svg width="25" height="22" viewBox="0 0 25 22" fill="none" xmlns="http://www.w3.org/2000/svg">
<path d="M22.5195 4.68963H3.90625C3.47461 4.68963 3.125 4.33986 3.125 3.90803C3.125 3.47619 3.47461 3.12642 3.90625 3.12642H22.6562C23.0879 3.12642 23.4375 2.77665 23.4375 2.34482C23.4375 1.04979 22.3882 0 21.0938 0H3.125C1.39893 0 0 1.39956 0 3.12642V18.7585C0 20.4854 1.39893 21.8849 3.125 21.8849H22.5195C23.8877 21.8849 25 20.8332 25 19.5401V7.03445C25 5.74138 23.8877 4.68963 22.5195 4.68963ZM20.3125 14.8505C19.4497 14.8505 18.75 14.1505 18.75 13.2873C18.75 12.4241 19.4497 11.7241 20.3125 11.7241C21.1753 11.7241 21.875 12.4241 21.875 13.2873C21.875 14.1505 21.1753 14.8505 20.3125 14.8505Z" fill="#00AC4F"/>
</svg>
