<svg width="25" height="22" viewBox="0 0 25 22" fill="none" xmlns="http://www.w3.org/2000/svg">
<path d="M22.5195 4.70782H3.90625C3.47461 4.70782 3.125 4.35805 3.125 3.92621C3.125 3.49438 3.47461 3.14461 3.90625 3.14461H22.6562C23.0879 3.14461 23.4375 2.79484 23.4375 2.363C23.4375 1.06798 22.3882 0.0181885 21.0938 0.0181885H3.125C1.39893 0.0181885 0 1.41775 0 3.14461V18.7767C0 20.5036 1.39893 21.9031 3.125 21.9031H22.5195C23.8877 21.9031 25 20.8514 25 19.5583V7.05264C25 5.75957 23.8877 4.70782 22.5195 4.70782ZM20.3125 14.8687C19.4497 14.8687 18.75 14.1687 18.75 13.3055C18.75 12.4423 19.4497 11.7423 20.3125 11.7423C21.1753 11.7423 21.875 12.4423 21.875 13.3055C21.875 14.1687 21.1753 14.8687 20.3125 14.8687Z" fill="#FFFFFF"/>
</svg>
